# xmcd CD database file
#
# Track frame offsets:
#	150
#	12562
#	50047
#	81850
#	116325
#	150442
#	173825
#	188212
#	207677
#	245477
#
# Disc length: 3624 seconds
#
# Revision: 0
# Processed by: cddbd v1.5.1PL2 Copyright (c) Steve Scherf et al.
# Submitted via: CDex 1.51
#
DISCID=850e260a
DTITLE=Hiroshi Minami 3 - three times one
DYEAR=1999
DGENRE=Jazz
TTITLE0=The Sweetest Thing
TTITLE1=Easy To Love
TTITLE2=Off Minor
TTITLE3=In Walked Bud
TTITLE4=Ginger Bread Boy
TTITLE5=Rain
TTITLE6=Gelsomina
TTITLE7=Amanda's Worry
TTITLE8=Change The World
TTITLE9=Tears In Heaven
EXTD=YEAR: 1999
EXTT0=
EXTT1=
EXTT2=
EXTT3=
EXTT4=
EXTT5=
EXTT6=
EXTT7=
EXTT8=
EXTT9=
PLAYORDER=
